<svg width="32" height="32" viewBox="0 0 32 32" fill="none" xmlns="http://www.w3.org/2000/svg">
<path d="M16 10.6667V28M16 10.6667V8C16 7.47258 16.1564 6.95701 16.4494 6.51848C16.7424 6.07995 17.1589 5.73816 17.6462 5.53632C18.1334 5.33449 18.6696 5.28168 19.1869 5.38457C19.7042 5.48747 20.1793 5.74144 20.5523 6.11438C20.9252 6.48732 21.1792 6.96248 21.2821 7.47976C21.385 7.99704 21.3322 8.53322 21.1303 9.02049C20.9285 9.50776 20.5867 9.92424 20.1482 10.2173C19.7097 10.5103 19.1941 10.6667 18.6667 10.6667H16ZM16 10.6667V7.33334C16 6.67406 15.8045 6.0296 15.4382 5.48143C15.072 4.93327 14.5514 4.50603 13.9423 4.25374C13.3332 4.00144 12.663 3.93543 12.0164 4.06405C11.3698 4.19267 10.7758 4.51014 10.3096 4.97631C9.84347 5.44249 9.526 6.03643 9.39738 6.68303C9.26876 7.32964 9.33478 7.99986 9.58707 8.60895C9.83936 9.21803 10.2666 9.73863 10.8148 10.1049C11.3629 10.4712 12.0074 10.6667 12.6667 10.6667H16ZM6.66667 16H25.3333M6.66667 16C5.95942 16 5.28115 15.719 4.78105 15.219C4.28095 14.7189 4 14.0406 4 13.3333C4 12.6261 4.28095 11.9478 4.78105 11.4477C5.28115 10.9476 5.95942 10.6667 6.66667 10.6667H25.3333C26.0406 10.6667 26.7189 10.9476 27.219 11.4477C27.719 11.9478 28 12.6261 28 13.3333C28 14.0406 27.719 14.7189 27.219 15.219C26.7189 15.719 26.0406 16 25.3333 16M6.66667 16V25.3333C6.66667 26.0406 6.94762 26.7189 7.44772 27.219C7.94781 27.7191 8.62609 28 9.33333 28H22.6667C23.3739 28 24.0522 27.7191 24.5523 27.219C25.0524 26.7189 25.3333 26.0406 25.3333 25.3333V16" stroke="#2C2C39" stroke-width="2.66667" stroke-linecap="round" stroke-linejoin="round"/>
</svg>
